:SAMPLES-PER-SECOND 30
:FULLY-SPECIFIED
:DEGREES
247
root  2.93851 25.396 1.15269 -19.6948 78.2113 -18.7888
RightUpLeg  -69.6013 -9.17761 5.88432
RightLeg  85.6517 16.071 -21.5158
RightFoot  -18.7523 0.343297 5.8781
RightToes  5.82077e-011 -3.18055e-015 -2.98177e-016
Spine  33.114 -2.83536 11.1947
Spine1  3.32648 0.503838 -4.13541
HEad  -18.9137 -23.4295 10.6419
LeftShoulder1  -3.88251e-019 9.70628e-020 -3.87848e-018
LeftArm  -21.5061 46.9181 -65.7566
LeftForeArm  -26.1345 -11.213 -3.75637
LeftHand  -0.0551192 4.02259 5.03866
RightShoulder  7.39496 10.8754 34.1107
RightArm  9.40965 -40.6753 22.5835
RightForeArm  9.58944 18.1153 -8.21253
RightHand  -1.01076 5.75411 -10.5207
LeftUpLeg  -60.6817 0.0203695 16.7321
LeftLeg  96.2043 -13.9886 3.75799
LeftFoot  -34.161 -2.57731 -13.2991
LeftToes  7.79675e-011 9.80247e-012 -3.28897e-011
248
root  3.37116 26.2408 1.13195 -19.0464 77.3524 -19.2532
RightUpLeg  -67.6643 -9.17187 6.46043
RightLeg  83.1299 15.14 -20.6985
RightFoot  -18.8116 0.33148 5.56865
RightToes  5.82077e-011 -3.18055e-015 -2.98177e-016
Spine  32.5796 -2.67093 11.4048
Spine1  1.89981 0.529585 -3.74425
HEad  -19.9649 -22.5415 11.3082
LeftShoulder1  -3.88251e-019 9.70628e-020 -3.87848e-018
LeftArm  -21.4804 45.4395 -65.2829
LeftForeArm  -17.5263 -9.96549 -3.38465
LeftHand  -0.10235 3.51218 7.23709
RightShoulder  7.35534 10.8738 33.9152
RightArm  8.40713 -39.9137 22.8514
RightForeArm  7.21962 18.5288 -8.83366
RightHand  -0.990597 5.47403 -10.5704
LeftUpLeg  -58.6122 -0.0369673 16.4113
LeftLeg  93.0804 -13.9803 5.32153
LeftFoot  -34.1184 -2.59525 -13.4224
LeftToes  7.79675e-011 9.80247e-012 -3.28897e-011
249
root  3.83912 27.2096 1.11455 -16.5231 76.383 -17.8732
RightUpLeg  -65.5338 -9.13857 6.62978
RightLeg  80.2506 14.1871 -19.3418
RightFoot  -18.6185 0.309375 5.31559
RightToes  5.82077e-011 -3.18055e-015 -2.98177e-016
Spine  31.6894 -2.47915 11.3487
Spine1  0.291606 0.524472 -3.6568
HEad  -21.2163 -21.5325 12.0025
LeftShoulder1  -3.88251e-019 9.70628e-020 -3.87848e-018
LeftArm  -20.1137 45.0481 -64.2066
LeftForeArm  -10.886 -11.3825 -3.19194
LeftHand  -0.216075 2.45041 9.67919
RightShoulder  7.35133 10.8801 33.8816
RightArm  10.1831 -39.8004 22.6295
RightForeArm  2.09188 20.1981 -10.3152
RightHand  -1.11314 5.41338 -11.9097
LeftUpLeg  -56.1209 0.236517 15.5637
LeftLeg  89.3059 -13.7451 6.82901
LeftFoot  -33.8134 -2.56831 -13.4818
LeftToes  7.79675e-011 9.80247e-012 -3.28897e-011
250
root  4.31996 28.2966 1.09456 -13.093 75.478 -15.4133
RightUpLeg  -62.9946 -9.20511 6.4313
RightLeg  76.7828 13.2015 -17.9102
RightFoot  -18.1324 0.272011 5.00969
RightToes  5.82077e-011 -3.18055e-015 -2.98177e-016
Spine  30.4152 -2.31115 11.1055
Spine1  -0.999397 0.463383 -3.77033
HEad  -22.6106 -20.7006 12.6878
LeftShoulder1  -3.88251e-019 9.70628e-020 -3.87848e-018
LeftArm  -18.0173 45.1761 -62.8281
LeftForeArm  -8.35299 -14.4226 -3.09077
LeftHand  -0.396089 0.877871 11.2554
RightShoulder  7.36431 10.8765 33.9545
RightArm  13.0904 -39.9669 22.1314
RightForeArm  -4.17341 22.3562 -11.8464
RightHand  -1.34132 5.57849 -14.0979
LeftUpLeg  -53.1832 0.632723 14.2506
LeftLeg  84.8315 -13.237 8.24738
LeftFoot  -33.0689 -2.47508 -13.4798
LeftToes  7.79675e-011 9.80247e-012 -3.28897e-011
251
root  4.79741 29.5139 1.05897 -9.63028 74.6281 -12.6266
RightUpLeg  -59.802 -9.30126 5.98654
RightLeg  72.4221 12.0903 -16.6599
RightFoot  -17.2936 0.21362 4.48227
RightToes  5.82077e-011 -3.18055e-015 -2.98177e-016
Spine  28.8764 -2.17247 10.811
Spine1  -1.9385 0.383158 -3.97605
HEad  -23.4696 -20.1113 13.0199
LeftShoulder1  -3.88251e-019 9.70628e-020 -3.87848e-018
LeftArm  -15.2672 45.3068 -61.631
LeftForeArm  -10.3828 -17.9279 -2.64518
LeftHand  -0.563872 -0.690107 11.6551
RightShoulder  7.38696 10.8647 34.0933
RightArm  14.7203 -40.2871 21.5976
RightForeArm  -8.75513 24.4232 -12.7703
RightHand  -1.54403 6.01409 -15.6042
LeftUpLeg  -49.6989 1.066 12.6654
LeftLeg  79.5801 -12.4174 9.44802
LeftFoot  -31.8935 -2.31567 -13.4015
LeftToes  7.79675e-011 9.80247e-012 -3.28897e-011
252
root  5.27481 30.8685 1.00885 -6.73276 73.7921 -9.87698
RightUpLeg  -55.5815 -9.40578 5.28434
RightLeg  67.0775 10.8865 -15.3332
RightFoot  -16.1183 0.148902 3.92349
RightToes  5.82077e-011 -3.18055e-015 -2.98177e-016
Spine  27.4118 -2.11722 10.5281
Spine1  -2.73487 0.296975 -4.27524
HEad  -23.1192 -19.6202 12.856
LeftShoulder1  -3.88251e-019 9.70628e-020 -3.87848e-018
LeftArm  -11.5401 45.2701 -61.01
LeftForeArm  -16.218 -21.1459 -1.29765
LeftHand  -0.62141 -1.38105 11.4597
RightShoulder  7.40613 10.8549 34.2105
RightArm  15.2555 -41.0453 21.2015
RightForeArm  -11.1663 26.0138 -13.4671
RightHand  -1.58167 6.26168 -15.6402
LeftUpLeg  -45.3238 1.42425 10.9801
LeftLeg  73.4496 -11.2702 10.3273
LeftFoot  -30.3409 -2.08451 -13.1403
LeftToes  7.79675e-011 9.80247e-012 -3.28897e-011
253
root  5.76582 32.3071 0.96487 -3.91039 72.8898 -6.81425
RightUpLeg  -50.6173 -9.47695 4.26834
RightLeg  60.9393 9.7642 -13.7352
RightFoot  -14.5895 0.0870175 3.61303
RightToes  5.82077e-011 -3.18055e-015 -2.98177e-016
Spine  25.9043 -2.06024 10.0217
Spine1  -3.38133 0.229429 -4.63364
HEad  -21.501 -19.1146 12.4174
LeftShoulder1  -3.88251e-019 9.70628e-020 -3.87848e-018
LeftArm  -8.67614 45.139 -60.959
LeftForeArm  -22.0789 -23.6098 0.448319
LeftHand  -0.608819 -1.36291 11.2647
RightShoulder  7.39153 10.8392 34.1708
RightArm  15.7337 -42.331 20.8165
RightForeArm  -11.9304 27.1786 -14.0476
RightHand  -1.48706 5.98373 -15.0711
LeftUpLeg  -40.1857 1.79001 9.16616
LeftLeg  66.4645 -9.77408 10.9644
LeftFoot  -28.3019 -1.75666 -12.5247
LeftToes  7.79675e-011 9.80247e-012 -3.28897e-011
254
root  6.27465 33.7386 0.93448 -0.253871 71.8286 -3.05304
RightUpLeg  -45.7754 -9.47727 2.98011
RightLeg  54.2887 8.87092 -11.9533
RightFoot  -12.6128 0.0192672 3.39128
RightToes  5.82077e-011 -3.18055e-015 -2.98177e-016
Spine  23.8703 -1.82199 8.99545
Spine1  -3.80106 0.216676 -4.88352
HEad  -18.9931 -18.6562 11.7622
LeftShoulder1  -3.88251e-019 9.70628e-020 -3.87848e-018
LeftArm  -7.35804 45.0007 -61.3734
LeftForeArm  -25.6987 -25.265 1.9058
LeftHand  -0.611583 -1.49395 11.0963
RightShoulder  7.32031 10.8033 33.8892
RightArm  17.2641 -43.8995 20.1759
RightForeArm  -12.3874 28.0103 -14.4751
RightHand  -1.43362 5.59129 -15.04
LeftUpLeg  -34.9643 2.31678 7.10321
LeftLeg  58.8307 -7.92505 11.3774
LeftFoot  -25.7436 -1.36582 -11.6469
LeftToes  7.79675e-011 9.80247e-012 -3.28897e-011
255
root  6.80445 35.0978 0.903971 3.15476 70.7097 0.423508
RightUpLeg  -41.0173 -9.59501 1.65539
RightLeg  47.3157 8.31198 -10.0513
RightFoot  -10.2048 -0.0476835 2.91139
RightToes  5.82077e-011 -3.18055e-015 -2.98177e-016
Spine  21.6267 -1.57366 7.77484
Spine1  -4.19479 0.182833 -4.97153
HEad  -15.9081 -18.2529 10.6575
LeftShoulder1  -3.88251e-019 9.70628e-020 -3.87848e-018
LeftArm  -7.04107 44.9386 -62.1289
LeftForeArm  -27.2111 -26.3648 2.91748
LeftHand  -0.642026 -1.95888 10.8846
RightShoulder  7.21728 10.7578 33.4654
RightArm  19.8245 -45.5759 19.0311
RightForeArm  -12.7365 28.6995 -14.8367
RightHand  -1.47205 5.65896 -15.3431
LeftUpLeg  -29.6823 2.80484 5.08723
LeftLeg  50.8087 -5.86838 11.3405
LeftFoot  -22.9466 -1.00455 -10.9073
LeftToes  7.79675e-011 9.80247e-012 -3.28897e-011
256
root  7.34698 36.2834 0.894732 6.08904 69.3321 3.49056
RightUpLeg  -36.6395 -9.61413 0.37024
RightLeg  40.6573 8.10796 -8.2813
RightFoot  -7.53331 -0.0937984 2.2636
RightToes  5.82077e-011 -3.18055e-015 -2.98177e-016
Spine  19.6501 -1.30447 6.3453
Spine1  -4.9493 0.160798 -4.93485
HEad  -12.537 -17.6514 9.178
LeftShoulder1  -3.88251e-019 9.70628e-020 -3.87848e-018
LeftArm  -6.93217 45.0469 -62.9396
LeftForeArm  -27.9546 -27.3007 3.71727
LeftHand  -0.664552 -2.30951 10.7366
RightShoulder  7.1187 10.7207 33.0431
RightArm  22.5957 -47.3773 17.4023
RightForeArm  -11.469 29.5524 -15.3738
RightHand  -1.48732 6.238 -14.7592
LeftUpLeg  -24.3588 3.5199 3.22351
LeftLeg  42.8255 -3.83336 10.799
LeftFoot  -20.1964 -0.702929 -10.4162
LeftToes  7.79675e-011 9.80247e-012 -3.28897e-011
257
root  7.88322 37.2407 0.923834 7.54328 67.4991 5.38719
RightUpLeg  -32.6757 -9.53073 -0.456593
RightLeg  34.8728 7.84965 -7.07631
RightFoot  -4.79195 -0.115477 1.68532
RightToes  5.82077e-011 -3.18055e-015 -2.98177e-016
Spine  18.3427 -1.08421 5.03418
Spine1  -5.9858 0.176541 -4.97205
HEad  -9.48815 -16.4938 7.92852
LeftShoulder1  -3.88251e-019 9.70628e-020 -3.87848e-018
LeftArm  -6.56178 45.3081 -63.3822
LeftForeArm  -28.7892 -28.3817 4.46509
LeftHand  -0.664431 -2.44016 10.5537
RightShoulder  6.99534 10.6654 32.5289
RightArm  24.7566 -49.1695 15.8874
RightForeArm  -7.3627 30.6066 -16.1754
RightHand  -1.36941 7.07711 -12.7278
LeftUpLeg  -18.8811 4.643 1.8513
LeftLeg  35.3186 -1.83359 10.0138
LeftFoot  -17.5224 -0.427347 -9.7764
LeftToes  7.79675e-011 9.80247e-012 -3.28897e-011
258
root  8.40346 37.9865 0.986461 6.59389 65.2802 5.31676
RightUpLeg  -28.7866 -9.72626 -0.242388
RightLeg  29.9035 6.93906 -6.59255
RightFoot  -2.23417 -0.0939829 0.98128
RightToes  5.82077e-011 -3.18055e-015 -2.98177e-016
Spine  17.7542 -0.968999 4.254
Spine1  -6.80389 0.191502 -4.92596
HEad  -7.42655 -14.64 7.3843
LeftShoulder1  -3.88251e-019 9.70628e-020 -3.87848e-018
LeftArm  -6.02693 45.5707 -63.2579
LeftForeArm  -29.3382 -29.7731 5.08456
LeftHand  -0.651907 -2.60726 10.1404
RightShoulder  6.81535 10.5501 31.8425
RightArm  25.7624 -50.3925 15.2779
RightForeArm  -1.62632 31.5142 -16.9846
RightHand  -1.17194 8.0103 -10.191
LeftUpLeg  -13.1893 5.70289 1.42408
LeftLeg  28.5905 0.348991 9.26114
LeftFoot  -15.0481 -0.194755 -9.04811
LeftToes  7.79675e-011 9.80247e-012 -3.28897e-011
259
root  8.90762 38.5233 1.07454 4.15724 62.9132 3.91713
RightUpLeg  -25.1047 -10.5975 0.911703
RightLeg  25.7025 5.38286 -6.54339
RightFoot  -0.433869 0.0024005 -0.0867926
RightToes  5.82077e-011 -3.18055e-015 -2.98177e-016
Spine  17.5008 -0.881398 3.56653
Spine1  -7.16736 0.105806 -4.07087
HEad  -6.41758 -12.2844 7.31092
LeftShoulder1  -3.88251e-019 9.70628e-020 -3.87848e-018
LeftArm  -5.78922 45.7914 -62.8122
LeftForeArm  -29.1037 -31.6296 5.5706
LeftHand  -0.635427 -2.78273 9.67404
RightShoulder  6.67601 10.4108 31.4087
RightArm  25.8355 -50.2855 15.4832
RightForeArm  2.55331 31.9837 -17.4629
RightHand  -1.03238 8.62931 -8.61592
LeftUpLeg  -7.7658 5.87324 1.69065
LeftLeg  22.9846 3.0237 8.73173
LeftFoot  -13.1795 -0.0413742 -8.95295
LeftToes  7.79675e-011 9.80247e-012 -3.28897e-011
260
root  9.37866 38.7709 1.16987 4.8634 60.4296 4.49229
RightUpLeg  -24.2631 -12.3724 1.70259
RightLeg  23.6535 3.94125 -6.76488
RightFoot  -0.12302 0.131547 -1.22243
RightToes  5.82077e-011 -3.18055e-015 -2.98177e-016
Spine  15.7951 -0.545998 1.01345
Spine1  -7.08562 -0.16377 -1.6612
HEad  -5.99783 -9.79158 7.12496
LeftShoulder1  -3.88251e-019 9.70628e-020 -3.87848e-018
LeftArm  -5.86862 46.1481 -62.3364
LeftForeArm  -28.8354 -33.9714 6.21834
LeftHand  -0.629798 -2.8475 9.51479
RightShoulder  6.72267 10.3479 31.7839
RightArm  25.9307 -48.6023 15.6185
RightForeArm  3.1089 32.0756 -17.544
RightHand  -1.02872 8.5178 -8.66001
LeftUpLeg  -4.71692 5.12756 0.694392
LeftLeg  19.1326 6.46883 8.68253
LeftFoot  -12.1067 0.048946 -9.4817
LeftToes  7.79675e-011 9.80247e-012 -3.28897e-011
261
root  9.79927 38.7822 1.32569 6.27521 57.6609 5.67868
RightUpLeg  -24.9638 -14.2124 2.42678
RightLeg  23.7285 2.20339 -7.63408
RightFoot  -1.12954 0.22307 -2.14891
RightToes  5.82077e-011 -3.18055e-015 -2.98177e-016
Spine  14.248 -0.115031 -2.76801
Spine1  -7.11814 -0.514324 1.91173
HEad  -5.93815 -7.40962 6.67327
LeftShoulder1  -3.88251e-019 9.70628e-020 -3.87848e-018
LeftArm  -6.10661 46.7518 -61.6421
LeftForeArm  -28.937 -36.3332 6.89764
LeftHand  -0.665649 -3.18717 9.64438
RightShoulder  6.94327 10.3877 32.849
RightArm  26.1575 -46.0756 15.6051
RightForeArm  1.39816 31.9047 -17.3612
RightHand  -1.15985 8.02447 -10.0759
LeftUpLeg  -2.82324 4.91814 -0.517021
LeftLeg  17.2764 9.63559 8.68453
LeftFoot  -11.8207 0.0787202 -9.94462
LeftToes  7.79675e-011 9.80247e-012 -3.28897e-011
